<?xml version="1.0" encoding="UTF-8"?>
<svg xmlns="http://www.w3.org/2000/svg" xmlns:xlink="http://www.w3.org/1999/xlink" width="51pt" height="57pt" viewBox="0 0 51 57" version="1.1">
<g id="surface1">
<path style=" stroke:none;fill-rule:nonzero;fill:rgb(71.764706%,79.215686%,61.568627%);fill-opacity:1;" d="M 51 39.171875 L 25.507812 35.480469 L 0 39.179688 L 25.503906 48.503906 L 51 39.171875 "/>
<path style=" stroke:none;fill-rule:nonzero;fill:rgb(29.411765%,38.039216%,17.254902%);fill-opacity:1;" d="M 5.105469 38.742188 L 9.414062 40.070312 L 9.808594 39.632812 L 9.808594 9.882812 L 9.414062 9.375 L 5.105469 11 L 5.105469 38.742188 "/>
<path style=" stroke:none;fill-rule:nonzero;fill:rgb(45.882353%,61.176471%,24.313725%);fill-opacity:1;" d="M 24.667969 37.429688 L 9.414062 40.070312 L 9.414062 9.375 L 24.667969 12.761719 L 24.667969 37.429688 "/>
<path style=" stroke:none;fill-rule:nonzero;fill:rgb(29.411765%,38.039216%,17.254902%);fill-opacity:1;" d="M 17.867188 42.628906 L 11.921875 40.820312 L 11.921875 2.933594 L 17.867188 0 L 18.386719 0.558594 L 18.386719 42.003906 L 17.867188 42.628906 "/>
<path style=" stroke:none;fill-rule:nonzero;fill:rgb(45.882353%,61.176471%,24.313725%);fill-opacity:1;" d="M 38.242188 37.914062 L 17.867188 42.628906 L 17.867188 0 L 38.242188 7.835938 L 38.242188 37.914062 "/>
<path style=" stroke:none;fill-rule:nonzero;fill:rgb(29.411765%,38.039216%,17.254902%);fill-opacity:1;" d="M 25.492188 48.097656 L 0 39.179688 L 0 44.351562 L 25.492188 56.929688 L 25.492188 48.097656 "/>
<path style=" stroke:none;fill-rule:nonzero;fill:rgb(45.882353%,61.176471%,24.313725%);fill-opacity:1;" d="M 51 44.347656 L 25.492188 56.929688 L 25.492188 48.097656 L 51 39.171875 L 51 44.347656 "/>
<path style=" stroke:none;fill-rule:nonzero;fill:rgb(71.764706%,79.215686%,61.568627%);fill-opacity:1;" d="M 43.835938 30.601562 L 37.65625 30.601562 L 20.035156 31.785156 L 25.5 32.78125 L 43.835938 30.601562 "/>
<path style=" stroke:none;fill-rule:nonzero;fill:rgb(29.411765%,38.039216%,17.254902%);fill-opacity:1;" d="M 20.035156 43.222656 L 25.496094 44.839844 L 25.65625 44.671875 L 25.648438 32.515625 L 25.492188 32.367188 L 20.035156 31.785156 L 20.035156 43.222656 "/>
<path style=" stroke:none;fill-rule:nonzero;fill:rgb(45.882353%,61.176471%,24.313725%);fill-opacity:1;" d="M 43.835938 30.601562 L 25.492188 32.367188 L 25.496094 44.839844 L 43.835938 39.394531 L 43.835938 30.601562 "/>
</g>
</svg>
